<svg width="1920" height="581" viewBox="0 0 1920 581" fill="none" xmlns="http://www.w3.org/2000/svg">
<rect y="2" width="1920" height="579" fill="#F9F9F9"/>
<g style="mix-blend-mode:color-burn">
<g clip-path="url(#clip0_108_223)">
<rect width="1920" height="581" fill="black" fill-opacity="0.2"/>
<path d="M961.53 0L967.695 7.61668C970.662 94.5424 1037.6 170.084 1123.27 184.289C1131.25 188.377 1136.04 191.804 1128.44 196.949C1033.91 217.594 972.188 288.092 965.527 383.177L949.292 382.772C947.583 390.812 935.639 389.121 928.766 387.78C860.087 374.412 802.204 329.878 777.655 263.478L777.746 335.354C776.947 341.382 774.907 346.977 771.683 352.15L764.994 351.947C742.814 276.304 693.485 216.382 611.741 199.89L606.33 192.916L609.077 186.769L765.242 185.474C764.746 103.5 834.49 4.56633 921.737 6.12826C925.054 3.66593 928.123 1.62624 930.925 0H961.548L961.53 0Z" fill="#668149"/>
<path d="M1154.45 -2.45226e-05L1160.2 6.57843C1162.57 86.6592 1210.11 146.417 1281.22 177.802C1296.14 176.81 1334.25 190.105 1309.82 202.251C1227.62 214.177 1167.62 284.61 1160.19 366.749L1154.46 379.704C1158.97 383.719 1157 385.602 1151.4 382.763C1150.63 385.52 1149.61 385.455 1148.35 382.763C1130.66 383.397 1113.82 384.426 1097.82 385.823L1097.29 388.745C1056.87 391.06 1016.4 392.126 975.872 391.942L972.27 385.814C967.382 394.707 951.846 392.144 949.301 382.754C956.247 381.771 959.113 386.889 961.53 378.142C964.452 367.548 963.128 355.705 965.334 345.194C982.698 262.458 1048.6 206.946 1130.01 191.363C1036.1 180.659 959.94 95.0201 961.557 -0.0275879H1154.47L1154.45 -2.45226e-05Z" fill="#ACBE65"/>
<path d="M1717.9 575.698C1725.88 570.911 1740.31 570.488 1733.2 581.826C1739.36 586.466 1740.59 595.663 1736.9 609.399L1916.33 609.38L1920 615.508V618.568L1917.18 624.696H1738.13L1730.14 630.824C1739.07 637.642 1738.61 657.386 1730.14 664.507C1734.42 666.05 1736.46 670.139 1736.27 676.754C1736.27 687.449 1736.24 698.465 1736.21 709.812L1730.15 713.505C1738.49 717.291 1738.53 721.977 1730.15 725.753C1739.23 733.627 1736.96 761.815 1727.09 768.623C1663.73 771.398 1600.44 771.398 1537.24 768.623C1529.75 778.27 1495.84 773.906 1491.31 762.495C1425.27 763.606 1366.69 693.614 1349 633.599C1344.07 616.914 1335.78 588.478 1347.39 575.698L1349.52 569.569H1714.17L1717.91 575.698H1717.9Z" fill="#ACBE65"/>
<path d="M1766.89 3.05957C1842.78 4.17129 1915.11 83.1036 1920.01 159.234V226.598C1916.54 278.482 1886.73 321.361 1845.56 352.067C1825.49 367.043 1802.01 382.23 1776.08 379.704C1773.71 392.539 1733.39 391.804 1728.69 384.353L1730.15 367.456C1721.41 363.644 1721.53 356.036 1730.15 352.15C1733.8 280.338 1791.78 212.725 1861.83 199.035C1844.88 193.982 1849.69 188.635 1864.89 186.788C1793.95 172.023 1734.83 108.094 1730.15 33.6733C1720.49 31.5877 1720.91 2.91256 1730.15 -0.00915527H1733.21C1744.71 1.11176 1755.93 2.1316 1766.89 3.05038V3.05957Z" fill="#276F61"/>
<path d="M1178.95 -5.70361e-05C1273.59 3.45455 1343.47 87.3758 1351.96 177.435C1393.13 173.796 1433.45 174.88 1472.92 180.669C1481.78 168.55 1494.76 185.364 1480.05 192.888L1352.13 192.934L1347.37 199.044C1358.52 216.933 1345.8 249.926 1337.34 269.248C1328.38 289.691 1315.83 308.535 1300.64 324.871C1285.56 341.097 1258.93 366.969 1237.14 364.406C1221.46 366.593 1210.3 343.89 1227.95 339.911C1215.33 331.091 1233.64 318.008 1243.88 327.747C1253.18 366.804 1257.63 330.108 1258.85 311.494C1265.47 304.603 1271.7 308.048 1276.86 314.709C1290.77 319.56 1303.33 275.569 1304.06 266.326C1290.36 301.323 1258.66 327.784 1258.61 269.643C1258.56 221.132 1277.14 219.542 1316.93 240.821C1326.92 231.937 1333.13 225.45 1314.85 228.647C1302.08 223.364 1288.46 220.865 1273.97 221.141C1257.31 234.546 1241.22 245.443 1225.72 253.822C1263.67 252.049 1244.61 305.365 1218.82 282.69C1208.01 251.488 1198.92 284.518 1209.2 300.909C1208.62 307.469 1203.65 310.033 1197.16 309.298C1196.42 318.228 1191.21 330.843 1182.03 324.595L1176.1 342.475L1202.55 343.035C1214.4 343.605 1225.48 348.796 1220.32 361.797C1201.99 364.342 1184.42 368.293 1167.6 373.621C1164.82 380.797 1161.6 384.996 1154.47 379.704C1153.16 362.21 1156.63 343.908 1161.55 327.058C1167.55 306.44 1184.77 275.579 1197.48 259.537C1205.4 249.54 1232.15 227.067 1242.76 220.783C1261.54 209.665 1292.44 196.077 1313.71 195.93C1307.38 183.691 1286.96 186.503 1279.2 183.544C1261.03 176.635 1210.75 142.08 1198.65 127.398C1187.8 114.223 1174.45 89.5625 1168.26 73.4747C1159.45 50.5879 1152.2 24.4211 1154.47 -0.0184326H1178.97L1178.95 -5.70361e-05Z" fill="#A0D4A1"/>
<path d="M1552.53 0C1606.03 1.70893 1648.32 19.7078 1685.55 61.5858C1700.33 78.2065 1723.06 106.946 1717.9 128.62C1723.09 150.119 1716.5 148.254 1698.03 141.446L1672.05 150.468C1687.25 183.526 1659.79 180.402 1640.38 166.207L1632.15 165.353C1611.82 167.934 1588.49 141.841 1575.59 126.047C1561.67 109.004 1550.77 89.4983 1543.23 68.8441C1536.22 49.6324 1525.42 16.5564 1537.21 0H1552.52H1552.53Z" fill="#276F61"/>
<path d="M1362.68 3.25165e-05C1413.48 1.15769 1455.06 18.0816 1489.64 56.2569C1504.34 72.4733 1526.69 101.194 1521.92 122.482C1526.96 134.344 1521.7 141.023 1506.14 142.521C1498.84 154.263 1486.3 157.056 1468.5 150.909C1477.54 174.403 1463.4 173.098 1445.36 168.421C1424.34 170.36 1399.55 143.826 1385.79 127.563C1371.88 111.145 1360.64 92.4108 1353 72.2712C1345.4 52.2418 1334.53 17.2271 1347.37 -0.00915527H1362.68V3.25165e-05Z" fill="#276F61"/>
<path d="M1537.23 0C1536.87 66.7677 1573.04 133.609 1632.16 165.362C1638.52 166.602 1672.54 177.683 1673.96 179.419C1675.52 181.321 1675.27 184.252 1675.03 186.797L1674.79 190.876C1629.92 193.293 1584.24 193.973 1537.75 192.916L1534.16 186.788C1529.06 180.457 1526.74 171.637 1527.19 160.318C1522.4 147.271 1520.63 134.656 1521.91 122.482C1504.84 75.6706 1472.78 38.5244 1426 17.8243C1405.72 8.85703 1383.98 5.21866 1362.68 0L1537.23 0Z" fill="#F0EDD4"/>
<path d="M1347.37 0C1344.17 70.7 1384.43 134.95 1445.36 168.421C1460.87 167.594 1470.06 171.683 1472.92 180.669L1344.29 183.747C1345.29 116.29 1299.14 50.0459 1239.76 20.3326C1219.13 10.0055 1200.01 8.19551 1178.94 0H1347.36L1347.37 0Z" fill="#F1ECD4"/>
<path d="M3.05953 24.4946C10.6119 80.5493 10.7038 136.861 3.05953 192.916C9.05916 199.926 9.05916 207.35 3.05953 214.351C11.3837 328.565 11.5491 443.109 3.05953 557.322C5.45755 557.295 9.14185 557.947 9.18779 559.454C11.154 626.065 10.3638 697.39 9.18779 764.893C9.16023 766.335 7.15729 767.75 4.58471 769.156C5.63212 831.807 5.12679 893.889 3.05953 955.411C5.78831 955.98 5.67805 957.018 3.05953 958.47C12.0452 1021.72 12.9364 1088.25 3.05953 1151.39C9.04997 1159.43 9.07754 1167.85 3.05953 1175.88C11.1815 1231.74 12.3668 1288.54 3.05953 1344.3C9.04079 1349.23 9.04079 1354.69 3.05953 1359.61C10.7405 1413.24 13.7174 1467.89 10.1525 1521.83L6.11907 1534.15C15.0772 1536.55 11.1724 1550.15 3.05953 1552.53C10.6762 1610.62 10.6027 1668.97 3.05953 1727.07C10.3271 1788.95 10.1801 1851.06 5.99963 1913.08C131.597 1909.03 257.267 1910.07 382.773 1916.93C383.342 1914.2 384.38 1914.31 385.832 1916.93C450.064 1909.38 514.516 1909.33 578.748 1916.93C640.949 1910.92 703.344 1910.89 765.545 1916.93C766.115 1914.2 767.153 1914.31 768.605 1916.93C769.174 1914.2 770.213 1914.31 771.664 1916.93C784.839 1910.91 798.3 1910.91 811.475 1916.93C813.202 1911.07 815.876 1911.07 817.603 1916.93C818.173 1914.2 819.211 1914.31 820.663 1916.93C821.232 1914.2 822.271 1914.31 823.722 1916.93C824.292 1914.2 825.33 1914.31 826.782 1916.93C837.899 1910.92 849.347 1910.91 860.464 1916.93C861.034 1914.2 862.072 1914.31 863.524 1916.93C866.326 1911.01 869.909 1911.01 872.711 1916.93C883.829 1910.92 895.277 1910.91 906.394 1916.93C906.964 1914.2 908.002 1914.31 909.453 1916.93C910.023 1914.2 911.061 1914.31 912.513 1916.93C913.083 1914.2 914.121 1914.31 915.573 1916.93C916.142 1914.2 917.18 1914.31 918.632 1916.93C919.202 1914.2 920.24 1914.31 921.692 1916.93C932.809 1910.92 944.257 1910.92 955.374 1916.93C958.176 1911.01 961.76 1911.01 964.562 1916.93C965.131 1914.2 966.17 1914.31 967.621 1916.93C979.768 1910.91 992.226 1910.91 1004.36 1916.93C1004.93 1914.2 1005.97 1914.31 1007.42 1916.93C1010.23 1911.01 1013.81 1911.01 1016.61 1916.93C1027.73 1910.91 1039.18 1910.92 1050.29 1916.93C1050.86 1914.2 1051.9 1914.31 1053.35 1916.93C1053.92 1914.2 1054.96 1914.31 1056.41 1916.93C1056.98 1914.2 1058.02 1914.31 1059.47 1916.93C1060.04 1914.2 1061.08 1914.31 1062.53 1916.93C1063.1 1914.2 1064.14 1914.31 1065.59 1916.93C1076.71 1910.91 1088.16 1910.92 1099.27 1916.93C1102.08 1911.01 1105.66 1911.01 1108.46 1916.93C1109.03 1914.2 1110.07 1914.31 1111.52 1916.93C1112.09 1914.2 1113.13 1914.31 1114.58 1916.93C1127.76 1910.91 1141.22 1910.91 1154.39 1916.93C1292.15 1909.32 1430.02 1909.42 1567.79 1916.93L1613.71 1910.88C1705.24 1909.04 1798.33 1909.69 1889.32 1916.93C1899.49 1916.76 1909.77 1917.06 1919.94 1916.93V1919.99H0V0H3.05953L7.13891 1.35979C4.95222 8.03932 3.59243 15.7479 3.05953 24.5038V24.4946Z" fill="#FDFDFD"/>
<path d="M1730.14 367.466C1730.41 372.547 1729.92 377.719 1730.13 382.791C1746.58 382.975 1760.16 383.958 1776.07 379.713C1821.22 380.016 1866.47 379.888 1911.84 379.309L1919.99 385.841V425.652C1919.73 428.068 1918.85 431.716 1917.15 431.78C1859.29 433.719 1794.77 433.71 1736.87 431.78L1733.19 425.652L1729.84 426.35C1729.15 412.688 1728.22 399.191 1727.07 385.841C1669.93 387.082 1612.77 387.082 1555.59 385.841C1545.44 376.525 1572.51 369.074 1573.97 379.713C1622.37 377.012 1672.78 375.928 1722.12 376.35C1722.62 370.939 1723.6 367.714 1730.14 367.466Z" fill="#A0D5A3"/>
<path d="M1730.14 3.25165e-05V33.6825C1735.52 55.871 1744.13 147.878 1731.88 161.42C1730.51 162.936 1728.84 164.186 1727.08 165.353C1718.82 164.342 1717.27 161.632 1724.02 156.165C1715.84 154.612 1712.63 145.7 1719.49 141.354L1717.9 128.602C1699.71 75.5237 1658.86 35.4098 1607.6 13.8277L1552.53 -0.00915527H1730.14V3.25165e-05Z" fill="#F0EDD4"/>
<path d="M1920 385.841C1872.79 382.8 1821.54 392.64 1776.07 379.713C1824.78 366.731 1871.26 330.494 1896.02 286.843C1907.27 266.997 1912.03 247.455 1919.99 226.608V385.841H1920Z" fill="#ABBF65"/>
<path d="M1766.89 0H1920.01V159.234C1903.85 100.983 1875.01 53.28 1821 23.9801C1807.8 16.8137 1781.15 5.21866 1766.89 3.05953C1764.22 2.18669 1764.26 1.16685 1766.89 0Z" fill="#ACBE65"/>
<path d="M1920 532.828V569.569L1913.82 574.026C1857.17 575.597 1800.26 575.845 1743.1 574.761L1730.13 569.569C1728.55 563.285 1726.67 536.833 1729.7 532.708C1730.1 532.175 1731.5 532.396 1733.19 532.818L1736.03 526.69H1916.32L1919.99 532.818L1920 532.828Z" fill="#9FD4A2"/>
<path d="M1920 437.899V474.641C1919.74 477.058 1918.87 480.705 1917.18 480.769C1865.08 482.681 1805.12 482.883 1752.98 480.769C1741.21 482.883 1733.61 480.843 1730.14 474.641C1727.97 464.277 1727.93 446.545 1733.2 437.899L1736.04 431.771H1916.32L1920 437.899Z" fill="#9ED5A5"/>
<path d="M1920 486.888V520.571L1917.16 526.699H1736.88L1733.2 520.571C1728.3 513.855 1728.25 493.577 1733.2 486.888L1736.04 480.76H1916.32L1920 486.888Z" fill="#A0D5A5"/>
<path d="M1920 581.817V615.499L1730.12 615.518L1733.2 581.817L1736.04 575.689C1796.11 575.872 1856.21 575.909 1916.32 575.799L1920 581.817Z" fill="#A0D4A1"/>
<path d="M1920 569.569V581.817H1733.2C1729.84 575.027 1725.11 574.669 1717.9 575.688C1716.87 572.611 1717.9 571.582 1720.96 572.629C1722.37 566.041 1724.41 565.021 1727.08 569.569C1727.82 566.813 1728.85 566.887 1730.14 569.569C1790.56 564.112 1858.74 573.63 1920 569.569Z" fill="#2B6C5C"/>
<path d="M1920 474.641V486.888H1733.2C1728.63 486.806 1728.45 478.564 1730.14 474.641H1920Z" fill="#2C6B56"/>
<path d="M1920 520.571V532.818H1733.2C1728.71 528.868 1728.7 524.513 1733.2 520.571H1920Z" fill="#257258"/>
<path d="M1920 425.643V437.89H1733.2C1728.61 434.729 1728.63 428.822 1733.2 425.643H1920Z" fill="#296F4D"/>
<path d="M388.901 0C391.574 0.87284 391.538 1.89268 388.901 3.05953C262.091 9.81256 135.116 11.1724 8.21392 7.11135C15.408 9.57368 13.4418 20.6725 6.1191 24.4946C5.24626 27.1683 4.22642 27.1315 3.05957 24.4946V0H388.901Z" fill="#7E9A64"/>
<path d="M930.907 0C932.395 9.32561 928.334 5.21867 921.719 6.12826C832.533 8.63652 732.166 9.71149 638.046 9.09591C618.145 8.96728 598.392 6.00882 578.748 3.06872C576.074 2.19588 576.111 1.17604 578.748 0.00918779H930.898L930.907 0Z" fill="#496F4E"/>
<path d="M578.757 0V3.05953C515.536 9.06835 452.122 9.04997 388.901 3.05953V0H578.757Z" fill="#488D7B"/>
<path d="M1766.89 0V3.05953C1756.38 1.47005 1741.47 6.75303 1733.21 0H1766.89Z" fill="#71B299"/>
<path d="M557.322 189.857C562.596 178.023 577.921 186.852 584.886 192.916C587.421 184.178 604.777 183.416 606.321 192.916C658.663 199.127 718.228 240.591 744.762 285.667L771.682 352.15C779.272 373.732 779.354 394.891 771.682 416.455C764.957 486.521 716.372 540.362 653.325 568.476L765.058 569.533L768.623 575.689C770.166 578.123 771.6 580.604 772.656 583.232C773.713 585.859 774.623 588.276 774.705 590.784C776.083 631.045 776.23 671.71 774.595 711.796C780.549 723.832 773.208 737.724 765.563 722.666L757.671 716.648C736.282 641.593 663.818 581.1 584.693 583.223C586.705 594.138 584.729 600.808 578.776 603.234C583.7 644.257 588.689 689.691 575.716 728.785L567.759 722.059C548.805 649.926 492.144 600.045 421.527 582.846L419.533 575.679C419.533 573.309 420.084 569.671 421.591 569.551C461.797 566.418 508.443 569.174 548.144 575.679C336.144 552.995 325.092 235.676 532.837 195.966C488.221 199.439 443.439 200.487 398.493 199.109L395.038 192.907C393.256 191.988 393.293 190.968 395.038 189.847H557.331L557.322 189.857Z" fill="#ACBE65"/>
<path d="M949.282 382.773C955.254 383.443 965.251 385.832 972.252 385.832H1097.8C1098.35 385.832 1103.14 378.822 1107.1 379.777L1148.33 382.773C1141 394.744 1108.53 397.988 1096.27 391.96C1077.37 394.983 1058.33 399.678 1040.43 406.229C1031.48 429.695 1002.06 448.998 976.037 447.767C980.135 470.507 981.55 494.808 967.989 514.663L949.181 568.596C958.81 594.698 972.298 593.596 993.218 578.941C1017.99 576.892 1040.69 570.213 1061.3 558.903C1114.73 544.303 1065.66 607.506 1035.27 597.464C1030.06 614.525 1011.22 638.092 993.218 639.893C978.481 662.725 968.467 688.055 963.184 715.876C951.653 723.97 949.154 731.789 955.696 739.332C951.138 754.933 949.871 769.183 951.901 782.065C973.75 772.574 991.041 774.724 1003.78 788.515C1035.01 783.388 1047.56 799.025 1015.88 816.078L1000.27 834.435C991.215 845.975 975.532 849.08 977.305 830.521C955.567 829.703 948.281 843.246 955.447 871.168C976.442 870.828 959.655 936.227 955.484 940.021C929.731 940.141 931.293 942.741 960.179 947.822L961.539 955.411C964.185 956.431 964.185 957.45 961.539 958.47C899.191 967.732 833.948 968.467 771.682 958.47C762.228 953.683 757.947 919.771 765.554 912.541C763.303 867.438 761.796 821.793 761.043 775.624C749.237 776.038 742.576 772.684 741.06 765.554C744.34 759.279 752.48 757.138 765.49 759.132L760.253 727.204L765.554 722.684C777.186 730.733 768.246 716.694 768.531 712.017C771.251 667.759 768.118 620.893 768.614 575.698C759.013 557.736 761.953 523.346 771.673 505.264L779.593 508.71C818.118 610.887 971.388 575.385 954.979 466.51C940.536 370.672 811.953 364.93 779.575 452.591L771.673 456.266C766.023 444.101 766.023 430.834 771.673 416.455C771.765 395.057 771.637 373.548 771.673 352.15C771.728 313.258 770.093 272.942 771.673 234.224C771.829 230.503 769.358 222.841 774.705 223.557C783.287 303.629 850.036 366.657 927.691 381.404C935.694 382.92 942.171 381.982 949.282 382.782V382.773Z" fill="#A0D4A1"/>
<path d="M921.728 6.12822C846.039 16.5104 784.178 88.0925 772.528 161.622C771.287 169.478 773.594 188.267 768.807 191.584L606.321 192.925C599.558 192.126 591.795 193.559 584.886 192.925C572.941 191.262 568.43 181.643 571.343 164.076L573.254 15.8213L578.757 3.06869C687.403 3.06869 796.26 1.87427 904.924 3.01356C910.097 3.06869 918.54 1.05656 921.719 6.12822H921.728Z" fill="#18411F"/>
<path d="M1182.01 324.595C1196.45 326.24 1211.35 328.519 1226.68 331.431L1227.95 339.911C1220.4 358.195 1228.3 352.003 1237.14 364.406C1237.14 373.511 1233.14 374.963 1227.95 367.466C1207.71 370.571 1190.5 377.471 1176.31 388.157L1185.8 447.583C1189.76 449.788 1194.62 450.643 1200.38 450.137C1200.59 438.79 1213.47 434.481 1212.63 447.078C1219.15 460.841 1221.82 482.423 1212.63 496.076C1220.63 493.09 1221.78 494.496 1218.76 502.205L1227.71 507.864C1249.09 508.948 1257.33 515.233 1252.44 526.699C1258.13 520.534 1264.28 524.889 1261.63 532.828L1268.57 534.996C1272.24 541.896 1283.65 545.093 1302.8 544.588C1316.24 556.826 1344.61 568.596 1321.13 543.421L1322.88 535.878C1312.69 534.371 1309.64 524.182 1313.71 505.319C1307.22 500.312 1305.17 495.185 1307.57 489.948C1301.82 488.947 1297.56 483.076 1294.82 472.344C1280.49 464.14 1274.19 456.789 1266.61 442.061C1260.23 446.444 1254.49 448.116 1249.39 447.078C1248.46 455.77 1242.07 458.103 1237.15 450.137C1223.86 464.029 1204.64 429.759 1226.99 424.65C1239.65 424.035 1241.91 421.38 1233.76 416.675C1213.62 436.916 1186.96 427.49 1187.29 398.282C1167.95 394.184 1183.27 372.51 1191.22 388.901C1195.68 387.89 1199.77 387.89 1203.46 388.901C1228.05 392.061 1244.93 398.199 1265.25 411.944C1282.78 423.796 1310.8 445.286 1313.7 465.453C1321.54 462.66 1321.93 465.224 1316.76 471.582C1332.87 477.214 1344.38 512.458 1346.76 529.575C1347.55 535.271 1347.04 575.33 1345.83 577.397C1339.88 587.486 1297.73 576.525 1286.13 572.895C1228.53 554.851 1178.48 508.296 1160.21 450.762L1161.21 559.83C1160.18 565.628 1157.91 570.911 1154.45 575.698C1150.46 579.832 1150.46 579.832 1154.45 575.698C1170.56 563.588 1203.94 574.687 1222.85 581.798C1275.21 601.497 1319.16 644.459 1338.84 696.958C1345.96 715.922 1356.79 749.54 1344.31 765.554C1342.15 779.409 1312.91 772.601 1302.07 769.202C1234.73 748.052 1185.83 712.486 1160.05 644.404L1161.09 754.446C1160.06 759.711 1157.83 764.424 1154.45 768.614L1145.52 774.972C1049.05 777.756 977.517 852.756 968.485 947.087L961.539 955.411C948.547 946.783 926.91 955.273 930.934 933.985L951.984 936.668C952.572 925.808 964.369 888.588 960.032 881.918C958.103 878.95 951.405 878.555 949.751 873.786C948.327 869.661 948.364 839.185 949.779 834.959C953.206 824.742 971.903 828.978 975.514 823.952C979.602 818.265 973.437 801.8 979.685 797.509C995.286 786.787 996.967 813.634 992.015 824.384C989.828 829.134 977.673 829.997 984.518 839.075C995.966 833.525 1003.97 819 1011.96 811.383C1015.99 807.552 1029.4 804.915 1028.81 797.684C1028.18 789.847 1009.28 796.618 1001.89 794.303C993.411 791.648 993.797 786.282 989.727 784.022C972.831 774.65 959.242 795.029 948.079 786.769C936.08 777.893 951.984 748.584 949.255 734.941L930.962 736.457C941.592 726.111 961.971 715.279 964.406 699.54C968.264 674.614 962.449 677.526 977.278 654.226C980.741 648.777 986.034 644.312 989.047 638.441C973.456 639.819 973.538 609.72 978.178 603.077C980.429 599.852 990.177 598.869 991.951 600.376C996.489 604.235 992.29 625.992 992.116 632.331C992.327 635.253 997.298 634.169 999.319 633.415C1002.31 632.295 1031.8 603.803 1028.87 597.151C1027.65 595.994 988.23 602.149 998.272 591.041C1000.24 588.864 1044.16 593.715 1056.64 589.691C1059.38 588.809 1080.81 566.712 1080.87 564.985C1080.99 561.539 1075.7 560.841 1071.69 561.797C1059.26 564.764 1044.19 575.79 1035.79 578.031C1025.88 580.687 1012.56 579.456 1000.7 582.745C980.447 588.349 973.557 606.642 953.702 588.11C949.531 584.215 942.796 573.998 943.09 568.329C943.402 562.284 960.473 522.418 964.102 512.614C965.572 508.645 969.753 508.471 970.488 506.045C974.135 494.037 972.877 461.751 970.065 449.255C965.94 430.917 933.342 406.771 976.809 401.203C973.511 410.06 971.499 430.292 973.603 438.974C975.376 446.306 1000.94 437.578 1006.02 434.978C1007.4 434.27 1029.31 417.659 1030.3 416.473C1033.87 412.192 1032.01 404.042 1037.26 401.139C1052.19 392.879 1079.34 391.161 1096.25 391.988C1087.46 401.295 1075.61 408.728 1060.73 414.296C1019.02 432.396 958.672 525.275 967.878 568.366C969.009 573.649 1016.87 561.218 1024.25 558.599C1094.84 533.517 1149.16 462.716 1146.54 388.138L1151.38 382.8C1152.23 382.488 1153.26 380.476 1154.44 379.741C1164.21 373.585 1158.71 374.108 1163.57 369.064C1174.48 357.727 1210.5 363.873 1215.67 358.26C1220.85 352.646 1207.15 349.715 1204.72 349.43C1193.17 348.07 1181.3 349.733 1169.74 349.108C1168.26 347.611 1171.54 332.828 1173.35 329.667C1176.76 323.713 1180.8 325.624 1182 324.632L1182.01 324.595Z" fill="#A0D4A2"/>
<path d="M1151.39 382.772C1158.23 402.756 1148.65 431.449 1141.46 450.937C1113.82 526.019 1041.66 575.367 961.521 575.67C962.412 495.13 1018.26 415.159 1096.26 391.951C1112.94 386.99 1131.34 387.045 1148.32 382.763C1149.33 382.506 1150.53 383.066 1151.38 382.763L1151.39 382.772Z" fill="#276F61"/>
<path d="M1534.17 385.841C1540.13 379.832 1546.57 379.832 1552.54 385.841L1725.21 387.366L1724.05 569L1720.96 572.638C1719.72 573.309 1718.78 574.632 1717.9 575.698H1347.37C1334.5 492.401 1393.46 414.893 1470.51 390.27L1469.85 385.841C1491.07 377.306 1512.91 377.462 1534.16 385.841H1534.17Z" fill="#1A4020"/>
<path d="M1521.92 122.492C1529.55 143.403 1537.31 163.846 1534.17 186.797H1675.03L1632.16 165.362C1640.34 157.157 1651.78 171.426 1654.99 171.766C1663.17 172.62 1672.83 172.712 1670.73 162.054C1668.52 150.891 1652.63 158.315 1656.64 143.936C1674.6 151.92 1698.95 123.897 1707.18 140.895L1711.74 134.757L1717.88 143.917L1717.91 128.611C1720.94 137.468 1722.03 147.069 1724.03 156.174C1720.56 165.463 1719.04 177.572 1724.12 189.912C1720.92 195.048 1716.51 198.089 1711.23 200.551C1710.12 235.364 1693.78 251.157 1662.27 227.747C1649.71 243.054 1637.24 245.636 1618.35 243.366C1615.98 259.546 1603.77 278.326 1594.42 292.282C1579.21 302.627 1571.12 316.593 1568.48 334.932C1602.85 331.348 1599.59 351.607 1570.4 360.474C1539.93 363.671 1575.38 364.47 1593.4 356.008C1613.11 357.57 1629.38 349.053 1642.2 334.831C1638.61 313.533 1681.38 305.485 1671.97 327.646C1669.51 344.854 1643.57 359.435 1627.86 367.355C1610.56 376.084 1593.61 382.653 1573.98 379.704C1567.38 379.299 1558.13 378.013 1555.6 385.832H1552.54C1546.42 385.823 1540.3 385.814 1534.17 385.832L1529.15 376.341C1538.21 295.691 1588.33 213.625 1671.97 199.035C1632.16 206.56 1578.54 208.848 1537.76 205.163L1534.17 199.035L1540.95 203.574C1543.52 217.503 1536.16 256.165 1521.92 260.281C1516.22 255.92 1516.22 255.92 1521.92 260.281C1531.49 268.513 1511.92 302.866 1500.49 300.092C1496.8 299.24 1496.8 299.24 1500.49 300.092C1503.21 316.014 1479.71 335.86 1467.08 346.49C1441.85 367.723 1407.69 388.248 1374.93 379.704C1372.68 383.985 1362.01 386.071 1365.08 383.581C1366.88 382.12 1374.11 382.58 1374.93 385.832C1401.94 378.776 1430.34 376.727 1460.14 379.704L1469.86 385.832L1491.28 391.924C1470.53 392.162 1442.77 407.286 1425.46 419.514C1371.14 457.892 1349.19 510.758 1347.37 575.689C1344.98 660.988 1405.92 743.228 1491.3 762.485C1488.1 767.438 1483.51 768.559 1477.92 768.412C1443.11 767.474 1406.12 763.239 1370.2 765.398C1362.25 765.876 1355.12 767.484 1347.37 768.605C1343.66 770.8 1342.27 769.367 1344.31 765.545C1347.55 662.541 1256.4 574.31 1154.45 575.689C1157.28 522.464 1152.32 466.887 1154.48 413.405L1170.64 463.037C1201.97 530.723 1269.16 575.753 1344.32 575.707C1347.05 540.003 1335.17 501.975 1316.75 471.582C1316.98 464.976 1315.96 462.927 1313.69 465.453C1299.5 444.827 1265.68 417.19 1243.31 405.687C1230.16 398.925 1216.29 395.847 1203.44 388.901C1250.72 388.8 1297.68 387.78 1344.3 385.841C1341.67 384.968 1341.7 383.949 1344.3 382.782C1336.85 371.609 1342.65 346.986 1346.48 333.232C1362.24 276.663 1397.5 231.835 1450.86 206.321L1350.89 205.209L1347.36 199.044C1347.44 197.106 1342.65 190.968 1344.31 186.815L1482.1 186.769C1481.38 181.091 1476.34 182.139 1472.91 180.678C1463.53 176.654 1454.37 173.383 1445.35 168.431L1466.77 165.353C1451.95 128.895 1476.68 152.784 1495.49 146.481C1499.52 145.13 1499.73 139.443 1502.63 137.679C1510.17 133.094 1525.25 136.09 1521.9 122.501L1521.92 122.492Z" fill="#276F60"/>
<path d="M1730.14 352.15C1730.22 357.24 1729.89 362.394 1730.14 367.456L1727.08 382.773C1678.65 381.486 1629.85 384.426 1581.41 382.892C1574.74 382.681 1574.38 379.731 1573.98 379.704C1611.39 373.199 1644.83 353.592 1671.97 327.646L1673.8 317.144C1697.3 292.604 1713.16 261.503 1719.56 228.151L1727.08 220.47L1734.55 227.922C1739.36 269.257 1739 311.402 1730.14 352.14V352.15Z" fill="#F1ECD5"/>
<path d="M1864.88 186.797C1859.27 187.596 1855.75 189.636 1854.32 192.925L1734.02 192.852C1725.39 187.275 1723.08 178.114 1727.08 165.362C1734.31 124.981 1730.14 75.8727 1730.14 33.6824C1743.77 85.4096 1766.99 127.995 1811.81 158.71C1820.2 164.461 1865.07 183.792 1864.88 186.788V186.797Z" fill="#AABE67"/>
<path d="M1861.82 199.044C1861.93 199.173 1867.72 200.533 1863.31 202.085C1813.18 213.846 1764.43 260.06 1744.93 307.221C1738.45 322.877 1736.93 337.468 1730.14 352.15C1729.51 310.364 1734.76 260.079 1727.08 220.47C1723.24 207.598 1725.51 198.438 1733.9 192.999L1856.23 192.916C1856.99 196.003 1859.21 197.657 1861.82 199.044Z" fill="#AABE67"/>
<path d="M1864.88 186.797C1864.45 193.963 1848.8 182.911 1861.82 199.044H1734.74C1723.09 200.34 1728.21 212.918 1727.08 220.479C1715.95 214.654 1714.21 202.729 1721.87 184.693C1717.91 172.244 1719.65 165.794 1727.08 165.353C1728.32 172.721 1723 185.538 1734.74 186.797H1864.89H1864.88Z" fill="#2F6D47"/>
<path d="M1347.37 199.044L1485.2 200.579C1424.32 215.536 1373.68 264.976 1355.14 324.724C1348.86 344.983 1348.27 362.55 1344.3 382.782C1292.52 384.16 1240.11 384.849 1187.08 384.84C1186.4 382.01 1187.13 379.823 1189.52 378.39L1227.94 367.466C1230.41 366.446 1232.73 366.547 1237.13 364.406C1300.64 333.462 1344.72 270.461 1347.36 199.044H1347.37Z" fill="#F0ECD4"/>
<path d="M1182.01 324.595C1199.56 310.125 1185.72 299.2 1188.15 297.06C1194.91 291.078 1198.82 308.039 1203.44 303.142C1205.09 301.378 1184.77 266.657 1213.76 263.772C1221.01 265.132 1221.31 277.977 1224.72 280.347C1236.01 288.203 1245.65 272.85 1238.88 263.12C1234.68 257.084 1218.3 265.895 1218.91 249.825C1219.95 244.818 1229.74 245.443 1233.79 243.164C1242.22 238.441 1267.85 215.996 1272.78 215.215C1275.28 214.82 1298.02 216.97 1302.81 217.539C1307.6 218.109 1311.28 221.821 1315.61 222.62C1321.2 223.649 1336.72 215.288 1331.56 233.645C1330.77 236.466 1320.2 247.308 1317.84 247.721C1314.68 248.272 1281.2 223.052 1267.44 240.095C1264.04 264.379 1258.02 328.482 1289.88 280.862C1297.71 269.165 1297.56 253.84 1313.67 257.24C1304.59 277.738 1305.73 313.239 1280.04 320.351C1271.77 322.638 1271.24 314.939 1264.73 312.348C1261.48 320.011 1264.55 344.524 1258.08 348.576C1254.91 350.56 1243.91 349.669 1241.52 346.233C1237.76 340.839 1244.73 323.07 1230.81 332.148C1228.02 333.958 1228.78 337.863 1227.95 339.902C1213.12 325.762 1192.76 343.329 1182.02 324.595H1182.01Z" fill="#A0D4A1"/>
<path d="M388.901 24.4946V189.856C393.146 182.378 396.71 184.794 395.029 192.916L532.828 195.976C507.074 197.776 484.573 207.607 464.525 223.107C454.217 223.658 448.631 212.826 454.74 205.163C454.437 207.515 453.849 210.924 452.085 211.292C442.153 213.331 406.881 213.138 401.148 205.163C412.164 211.76 425.248 214.719 440.389 214.03C474.402 220.672 445.479 240.518 428.022 246.141C428.427 260.483 420.011 271.857 409.592 280.742C405.154 303.261 386.723 313.846 384.987 285.391C371.646 290.509 370.525 300.808 381.615 316.29C397.197 351.745 364.654 368.247 347.877 334.399C340.27 344.845 318.899 360.804 318.467 339.911L320.047 330.549C347.813 310.373 388.625 232.469 379.878 200.34C379.125 197.574 360.575 200.468 355.623 201.268C278.739 213.662 216.014 278.215 203.142 354.603L195.976 361.347L188.221 353.757C171.077 267.328 100.331 201.268 11.0437 199.063L3.05952 192.916C3.14221 136.825 2.99521 80.5861 3.05952 24.4946H6.11906L12.7618 32.0102C24.6508 161.007 181.799 221.343 288.552 161.687C345.112 130.081 363.772 83.3332 381.633 26.5803L388.892 24.4946H388.901Z" fill="#F2ECD4"/>
<path d="M42.8702 578.757L48.9985 581.578V760.62C52.4347 760.823 55.4943 762.467 58.1863 765.554C70.0845 768.761 80.531 768.439 89.5166 764.562L91.8687 768.614C92.4108 760.244 103.822 757.57 107.176 765.554C115.656 759.619 125.882 757.616 137.854 759.564C143.761 768.421 150.588 768.467 156.358 759.518L168.421 765.563C170.149 759.692 172.822 759.692 174.55 765.563C181.725 761.576 188.873 762.596 195.985 768.623C196.858 765.949 197.877 765.986 199.044 768.623C201.598 769 204.676 770.332 204.511 772.39C200.321 824.264 200.266 875.918 203.133 928.638C205.843 946.774 202.572 958.783 193.302 964.672C142.769 968.182 92.6221 967.134 42.8702 961.539C31.0547 959.022 15.316 958.626 3.05954 958.479C3.06872 957.46 3.05035 956.44 3.05954 955.42C5.0441 892.208 5.55862 828.583 4.60309 764.553C13.4693 762.486 23.2084 761.558 33.8019 761.778L36.6777 582.341L42.861 578.776L42.8702 578.757Z" fill="#1A4020"/>
<path d="M168.421 385.841C173.024 378.206 173.07 378.215 177.609 385.841C202.802 376.001 210.024 392.925 192.916 410.336C197.464 428.206 192.999 441.924 186.898 458.517C164.388 519.808 105.687 566.142 42.861 575.698C45.4704 576.506 45.4152 577.535 42.861 578.757L39.8107 768.632C28.5281 768.108 16.5931 770.837 6.13743 765.554C5.24621 825.321 7.1389 885.253 6.33037 945.056C6.25687 950.752 3.05033 954.869 3.04114 955.411V557.322C1.72729 488.156 52.5633 422.161 114.232 394.487C131.257 386.843 149.945 379.079 168.403 385.841H168.421Z" fill="#276F61"/>
<path d="M3.0595 192.916C58.664 191.795 114.719 216.749 149.88 259.647C174.972 290.27 188.837 322.317 195.976 361.337C204.483 363.111 205.182 378.509 195.976 379.713C196.94 383.406 196.389 384.794 193.77 383.002L177.6 385.832C174.577 385.906 171.398 385.52 168.412 385.832C81.9918 381.449 4.53874 302.26 3.0595 214.351C3.0595 207.212 3.05032 200.055 3.0595 192.916Z" fill="#A0D4A1"/>
<path d="M168.421 385.841C81.5049 395.029 13.7358 473.18 3.05956 557.322C3.16062 443.054 2.92174 328.629 3.05956 214.351C15.2609 285.345 59.4818 347.124 128.059 372.602C140.996 377.407 157.865 376.589 168.412 385.832L168.421 385.841Z" fill="#F0EDD4"/>
<path d="M1727.08 385.841C1730.74 445.865 1731.71 509.628 1727.08 569.569C1726.74 569.625 1721.98 572.068 1720.96 572.629L1724.03 388.882L1552.53 385.832C1553.55 385.832 1554.57 385.832 1555.59 385.832C1612.71 385.933 1669.96 385.758 1727.07 385.832L1727.08 385.841Z" fill="#C4E7CF"/>
<path d="M1733.21 425.643C1733.26 429.722 1733.14 433.811 1733.21 437.89C1733.35 445.856 1730.11 462.532 1730.15 474.632C1730.15 476.396 1733.22 481.394 1733.21 486.879C1733.19 496.71 1733.34 510.804 1733.21 520.562C1733.16 524.641 1733.23 528.73 1733.21 532.809C1733.21 533.213 1730.29 536.245 1730.02 540.205C1729.37 549.917 1730.68 559.84 1730.14 569.551C1729.13 569.643 1728.06 569.386 1727.08 569.551V385.823L1729.89 387.532C1731.04 397.721 1729.4 408.039 1730.02 418.219C1730.27 422.188 1733.2 425.229 1733.21 425.634V425.643Z" fill="#63906C"/>
<path d="M1727.08 165.362C1725.67 173.291 1717.3 187.532 1730.13 191.363C1718.72 200.257 1725.16 210.575 1727.08 220.479C1720.94 262.146 1702.04 298.906 1671.97 327.655C1669.48 314.406 1652.6 322.574 1648.28 328.243C1647.6 329.134 1649.91 334.215 1647.32 337.899C1640.5 347.657 1623.48 358.158 1612.05 361.154C1607.02 362.467 1600.46 360.575 1594.56 362.017C1581.69 365.159 1568.13 369 1555.65 373.585C1542.71 342.502 1555.73 357.258 1568.69 354.658C1569.64 354.465 1585.53 346.683 1586.22 345.985C1595.98 336.144 1567.14 343.412 1564.69 341.639C1557.09 336.144 1570.15 308.609 1574.47 302.131C1579.39 294.744 1586.78 292.695 1589.44 288.745C1591.07 286.337 1610.74 252.205 1611.62 250.128C1613.49 245.746 1611.1 240.509 1612.15 238.791C1614.45 235.07 1634.71 239.287 1641.37 236.797C1648.56 234.123 1658.99 221.141 1661.66 220.672C1664.91 220.093 1674.36 230.908 1683.51 232.185C1709.99 235.878 1699.02 208.443 1706.5 196.839C1708.38 193.936 1719.33 191.29 1720.5 184.812C1721.3 180.393 1710.9 167.356 1714.86 159.252L1724.02 156.183C1724.47 158.177 1726.28 160.538 1727.08 165.371V165.362Z" fill="#276F61"/>
<path d="M388.901 3.05956C398.171 4.12535 397.758 22.6571 388.901 24.4947L364.976 90.904C277.425 258.232 13.9378 200.992 6.12821 24.4947C5.81582 17.3925 6.33034 10.1525 6.10983 3.04119C133.664 3.00444 261.356 3.15144 388.901 3.05956Z" fill="#668248"/>
<path d="M578.757 3.05948C582.487 61.1263 573.833 125.128 578.546 182.488C579.051 188.644 578.978 189.994 584.886 192.916C576.497 192.144 563.588 190.141 557.322 189.856H395.029V192.916L388.901 189.856V3.05948C452.14 3.01354 515.518 3.05948 578.757 3.05948Z" fill="#286E5E"/>
<path d="M532.828 195.985C354.961 244.818 335.749 488.147 505.356 561.833L548.144 575.698H419.533L466.188 591.822C522.133 617.713 562.339 668.816 575.707 728.812C585.372 732.836 588.423 761.999 580.576 767.226L551.212 765.554C548.401 773.823 544.864 773.851 542.025 765.554C464.709 760.657 395.093 688.974 388.91 612.44C388.478 600.321 387.458 588.074 385.85 575.698L379.162 566.289C374.311 477.434 313.478 407.387 225.965 390.683L217.429 382.772L224.917 375.551C255.035 370.571 283.526 358.269 308.113 340.178L318.486 339.902C332.442 354.125 339.948 325.266 350.422 327.738C353.96 328.564 360.125 354.226 376.865 344.735C386.576 327.958 369.781 310.823 364.562 294.175C373.456 289.195 372.445 280.981 387.394 278.629C397.004 277.122 389.397 293.495 391.997 297.032C404.998 294.781 399.458 285.529 404.502 277.416C407.846 272.032 415.196 271.821 418.779 264.131C421.637 258.011 421.94 239.976 422.84 239.085C423.621 238.313 430.705 239.094 434.573 237.155C440.6 234.123 446.784 228.013 453.188 225.046C438.065 213.313 399.384 226.001 401.148 205.154H454.741C459.886 205.154 456.036 218.522 463.974 217.475C471.058 216.538 472.776 209.509 477.912 206.881C495.231 198.034 513.322 193.761 532.837 195.966L532.828 195.985Z" fill="#F2ECD4"/>
<path d="M581.808 217.42C588.551 304.814 665.067 373.484 750.275 384.307C659.481 397.73 597.932 456.302 581.734 546.591C580.824 551.672 583.645 551.837 575.716 551.194C570.323 463.368 492.392 394.34 407.249 384.307C497.289 370.994 559.775 311.337 575.79 222.023C576.699 216.942 573.879 216.777 581.808 217.42Z" fill="#668249"/>
<path d="M765.554 722.684C766.997 728.766 773.355 763.854 771.692 765.554H741.06C738.524 774.292 736.42 773.033 731.872 765.554C652.976 759.114 580.88 682.441 578.757 603.261C578.849 598.189 577.251 576.166 580.512 575.652C667.704 575.312 745.598 638.744 765.554 722.693V722.684Z" fill="#F1ECD4"/>
<path d="M771.673 456.266C780.007 472.372 780.144 489.195 771.673 505.264C771.517 528.61 768.853 553.656 768.614 575.698L606.284 574.163C666.372 565.802 722.225 526.451 749.687 472.565C759.086 454.125 762.237 434.242 771.673 416.464C771.618 429.704 771.765 443.035 771.673 456.275V456.266Z" fill="#668347"/>
<path d="M395.029 189.857H557.322C503.491 187.357 448.915 191.712 395.029 189.857Z" fill="#0E5842"/>
<path d="M771.673 456.266C789.047 405.77 835.152 375.238 888.79 386.622C969.431 403.73 989.341 515.242 919.624 559.821C860.822 597.427 794.248 567.429 771.673 505.264C771.784 488.965 771.554 472.565 771.673 456.266Z" fill="#F1EDD4"/>
<path d="M1154.45 575.698C1151.45 632.267 1131.71 682.12 1088.7 719.698C1052.25 751.552 1009.41 765.104 961.557 768.605C965.361 756.357 963.174 742.916 965.389 731.128C982.166 641.648 1063.01 576.938 1154.46 575.698H1154.45Z" fill="#276F61"/>
<path d="M1249.38 447.078C1263.35 438.928 1273.74 454.042 1274.52 468.09C1287.6 474.669 1292.15 482.074 1293.43 496.453C1298 494.56 1302.72 492.392 1307.56 489.948C1310.02 494.799 1319.78 499.65 1319.86 500.964C1320.5 510.961 1315.37 522.188 1322.88 535.887C1329.4 554.41 1307.05 548.327 1301.75 534.803C1288.27 532.57 1274.9 531.909 1261.63 532.827C1261.01 532.065 1255.43 529.759 1252.44 526.699C1251.79 521.958 1251.85 517.227 1252.6 512.495C1238.9 512.137 1227.63 508.7 1218.76 502.195C1217.12 500.294 1214.74 499.816 1212.63 496.067C1214.58 486.052 1220.98 479.4 1231.39 478.105C1229.42 464.718 1231.34 455.393 1237.13 450.128C1240.48 450.303 1246.24 446.646 1249.37 447.069L1249.38 447.078Z" fill="#A0D4A1"/>
<path d="M1227.95 367.466C1227.07 367.833 1224.93 372.234 1222 372.078L1188.15 382.745L1344.3 382.772C1343.9 383.71 1344.78 385.354 1344.3 385.832C1293.5 387.587 1242.46 388.607 1191.19 388.892C1187.84 389.636 1181.26 386.374 1182.02 391.924C1202.01 390.012 1188.05 410.722 1200.51 417.815C1221.45 429.731 1225.56 408.958 1235.13 410.823C1240.43 411.852 1248.22 422.666 1246.31 428.693C1236.89 428.555 1225.79 429.079 1218.81 436.365C1224.57 441.455 1228.72 449.706 1237.12 450.147C1238.39 455.65 1237.9 482.267 1236.8 483.517C1235.9 484.527 1228.75 484.298 1225.63 486.071C1219.42 489.599 1220.16 497.151 1212.62 496.076C1206.81 485.703 1212.97 484.867 1212.66 476.157C1212.19 463.175 1207.73 463.028 1212.62 447.078C1208.89 436.686 1203.21 439.838 1200.38 450.137C1192.92 456.394 1191.07 461.769 1180.45 450.156L1169.52 384.785C1186.52 374.081 1207.46 365.555 1227.93 367.456L1227.95 367.466Z" fill="#A0D4A1"/>
<path d="M1261.63 532.828C1266.49 522.289 1298.15 526.019 1305.19 529.823C1310.33 532.607 1314.65 551.451 1322.88 535.887C1326.23 542.015 1340.5 547.813 1335.13 563.45C1317.52 569.625 1309.09 552.783 1298.57 549.485C1288.85 546.444 1274.81 550.459 1266.73 545.332C1261.94 542.3 1263.21 534.775 1261.64 532.828H1261.63Z" fill="#A0D4A1"/>
<path d="M1249.38 447.078C1273.83 419.294 1275.12 450.707 1283.97 458.452C1287.76 461.778 1292.98 460.06 1299.72 468.706C1306.08 476.855 1304.91 484.693 1307.57 489.948C1305.7 493.733 1303.82 500.661 1299.42 501.901C1283.73 506.33 1287.49 490.426 1284.59 483.875C1281.96 477.921 1272.3 475.817 1269.48 471.407C1266.48 466.712 1267.53 458.939 1264.98 455.172C1264.48 454.446 1250.26 447.197 1249.39 447.078H1249.38Z" fill="#A0D4A1"/>
<path d="M1313.69 465.453C1315.29 462.642 1317.66 444.68 1316.79 444.027C1315.54 443.081 1307.2 445.994 1302.91 441.005C1300.55 438.258 1300.24 430.393 1296.81 425.67C1293.38 420.948 1271.72 410.088 1280.02 401.157C1282.2 398.805 1304.41 408.324 1307.73 411.696C1314.3 418.394 1315.25 436.65 1319.67 439.553C1324.76 442.897 1337.13 439.847 1338.2 440.931C1339.11 441.859 1341.42 465.435 1341.1 466.694C1338.88 475.716 1322.29 465.04 1316.75 471.572C1315.35 469.257 1314.21 466.216 1313.69 465.444V465.453Z" fill="#276F61"/>
<path d="M1148.31 477.719C1146.01 483.315 1147.43 548.19 1136.09 535.869C1137.56 502.765 1112.58 546.315 1105.39 549.586C1095.6 554.042 1081.32 551.561 1080.97 538.965C1107.01 546.536 1110.15 517.208 1122.23 507.975C1126.76 504.511 1132.74 508.82 1134.66 505.549C1139.98 496.481 1128.61 474.917 1148.31 477.719Z" fill="#A0D4A1"/>
<path d="M1252.44 526.699C1250.14 524.338 1249.86 519.266 1248.65 518.348C1245.2 515.711 1230.48 516.133 1223.57 511.062C1218.6 507.423 1219.72 503.316 1218.76 502.205L1255.55 506.587C1261.52 510.777 1258.65 522.794 1252.45 526.699H1252.44Z" fill="#A0D4A1"/>
<path d="M1344.31 385.841C1341.25 388.956 1341.44 388.644 1336.96 389.075C1297.31 392.943 1244.71 388.901 1203.45 388.901H1191.21C1237.37 378.656 1296.64 390.169 1344.32 385.841H1344.31Z" fill="#12573F"/>
<path d="M1139.15 563.432C1128.12 562.77 1105.1 567.631 1108.5 551.212C1129.96 555.209 1139.09 532.056 1139.15 563.432Z" fill="#A0D4A1"/>
<path d="M1200.38 450.147C1195.67 437.853 1210.02 430.521 1215.7 437.918C1217.3 439.994 1213.29 444.946 1212.63 447.078C1202.93 440.113 1204.79 446.453 1200.38 450.137V450.147Z" fill="#A0D4A1"/>
<path d="M1521.92 260.29C1529.28 240.261 1538.08 221.453 1534.17 199.044H1671.97L1630.1 219.956C1568.93 255.154 1541.56 317.686 1534.17 385.841C1512.77 385.915 1491.26 385.676 1469.86 385.841C1439.32 386.08 1404.79 383.526 1374.93 385.841C1366.8 384.867 1367.15 382.047 1374.93 379.713C1426.2 378.418 1473.58 339.792 1500.49 300.092C1512.75 281.992 1513.79 282.405 1521.92 260.281V260.29Z" fill="#F1ECD5"/>
<path d="M1521.92 260.29C1505.12 267.163 1468.71 243.201 1468.26 271.012C1468.22 274.072 1472.59 297.795 1473.64 300.918C1475.21 305.613 1488.85 315.031 1485.15 318.467C1479.52 323.704 1470.22 307.276 1467.89 306.532C1465.17 305.678 1444 309.334 1442.15 310.676C1436.15 315.022 1439.28 350.56 1431.51 352.168C1410.95 340.849 1392.62 333.508 1368.82 339.893C1375.63 329.979 1378.58 293.173 1382.71 287.624C1383.75 286.218 1405.04 280.31 1411.83 271.067C1412.33 270.397 1417.19 256.045 1417.23 255.209C1417.39 250.799 1413.92 249.651 1413.32 247.978C1409.48 237.284 1421.88 247.133 1425.57 247.951C1445.08 252.278 1436.42 244.469 1437.48 240.417C1438.4 236.861 1441.88 235.621 1443.36 232.727C1444.5 230.485 1442.16 226.957 1442.41 226.791C1443.58 226.029 1468.26 221.26 1469.79 221.903C1489.31 230.246 1447.91 239.305 1454.57 248.024C1469.84 254.575 1472.43 240.839 1489.33 242.126C1493.68 242.457 1517.46 248.906 1520.08 250.845C1523.72 253.528 1521.5 256.771 1521.92 260.299V260.29Z" fill="#276F61"/>
<path d="M1522.7 186.218C1524.67 187.532 1528.58 186.659 1531.12 186.825C1521.63 196.61 1533.83 225.808 1511.28 223.759C1489.2 221.757 1508.92 189.608 1509.64 181.909C1510.35 174.21 1500.83 150.266 1511.23 147.014C1530.81 140.876 1511.82 178.969 1522.7 186.218Z" fill="#276F61"/>
<path d="M1374.93 385.841C1362.3 386.824 1366.36 391.437 1363.8 391.997C1352.1 394.579 1348.07 386.089 1350.47 375.652C1351.02 373.254 1356.28 374.797 1356.86 369.147C1357.8 359.941 1354.04 351.837 1353.54 342.971C1361.91 341.813 1369.53 355.2 1370.63 355.31C1376.47 355.861 1394.46 348.576 1403.78 352.113C1414.91 353.519 1396.51 371.573 1377.23 366.777C1369.5 364.847 1371.63 355.439 1362.71 372.087C1375.4 376.947 1365.91 373.511 1362.71 379.695C1366.77 379.695 1370.88 379.832 1374.94 379.722V385.85L1374.93 385.841Z" fill="#276F61"/>
<path d="M1417.81 404.226C1420.57 415.178 1412.09 413.451 1406.93 419.312C1402.45 424.393 1391.88 444.349 1385.59 434.886C1384.79 430.457 1386.12 405.319 1387.16 404.198C1388.21 403.077 1412.67 405.007 1417.8 404.226H1417.81Z" fill="#276F61"/>
<path d="M1500.48 300.092C1496.74 312.137 1474.53 298.548 1480.45 284.877C1482.69 279.704 1496.8 271.233 1497.44 277.214C1494.73 283.002 1501.37 297.243 1500.48 300.092Z" fill="#276F61"/>
<path d="M1377.75 438.129C1385.11 450.523 1364.8 467.769 1360.12 451.047C1356.45 437.899 1366.79 436.301 1377.75 438.129Z" fill="#276F61"/>
<path d="M1350.41 477.692C1349.83 485.593 1353.86 498.337 1344.35 502.195L1338.2 477.719L1350.41 477.692Z" fill="#276F61"/>
<path d="M235.786 575.698L241.915 578.518L241.896 757.57C245.893 759.297 248.962 761.953 251.102 765.554C251.865 693.825 252.885 630.54 254.162 575.698C264.278 569.698 274.687 569.661 284.785 575.698C287.21 575.964 290.849 576.846 290.904 578.555C291.244 589.342 295.158 768.797 289.406 761.603C287.311 758.985 287.909 758.02 290.876 759.325L290.904 579.336L297.032 575.688C309.527 568.099 321.315 568.026 333.774 575.688C338.68 578.114 342.76 578.114 346.021 575.688C342.907 566.96 380.209 567.796 382.185 568.945L385.832 575.688V578.748L384.298 956.265C377.159 956.201 371.545 956.927 367.466 958.461C350.165 960.014 321.325 969.909 305.127 977.278C244.257 1004.95 207.267 1062.46 194.45 1126.92C185.924 1047.78 120.48 978.077 42.8702 961.53L195.994 958.479C199.954 901.781 190.674 838.037 195.847 782.175C196.334 776.892 198.943 770.718 199.035 768.604L195.856 767.41C196.058 705.558 196.655 643.586 197.648 581.486L202.095 575.688C213.212 569.67 224.669 569.661 235.777 575.688L235.786 575.698Z" fill="#276F61"/>
<path d="M385.841 958.47C379.888 958.415 373.3 957.947 367.466 958.47L359.821 955.392L382.791 955.42L385.841 578.757C388.864 705.264 388.864 831.835 385.841 958.47Z" fill="#1B5A40"/>
<path d="M195.985 361.337C207.552 267.778 290.601 191.455 385.85 192.907C388.368 247.363 360.529 305.972 318.467 339.902C289.801 363.028 254.235 378.509 217.411 382.772C215.628 391.924 196.582 388.497 195.976 379.713C196.472 373.768 195.259 367.107 195.976 361.337H195.985Z" fill="#276F61"/>
<path d="M394.983 263.34C382.901 254.97 391.234 233.269 388.91 220.489C409.481 225.211 398.162 249.292 394.983 263.34Z" fill="#F2ECD4"/>
<path d="M140.858 575.698C143.274 575.955 146.931 576.828 146.986 578.518C147.372 590.481 152.811 768.301 144.919 763.303C140.077 760.235 143.348 758.967 148.227 758.875L147.005 579.4L153.105 575.698C155.586 565.95 186.53 566.372 189.847 575.698L193.394 584.04C191.317 646.003 192.181 707.533 195.966 768.623C189.213 771.903 176.957 765.573 174.531 765.563C178.519 706.513 179.107 647.473 176.304 588.46C175.569 587.054 167.493 586.962 166.777 587.697C160.547 594.101 160.603 744.128 168.412 765.563C148.714 765.729 127.03 765.747 107.166 765.563L101.038 762.743V579.373L107.166 575.716C109.252 566.051 137.927 566.473 140.849 575.716L140.858 575.698Z" fill="#286D58"/>
<path d="M168.421 765.554C161.512 762.596 159.987 759.15 159.077 751.919C154.658 716.638 156.385 635.519 159.096 598.529C159.353 594.964 160.529 583.599 162.734 582.258C165.353 580.668 178.96 580.723 181.018 583.599C188.322 593.788 182.543 732.037 180.632 754.924C180.145 760.767 184.105 767.245 174.55 765.545C172.51 765.545 170.47 765.527 168.421 765.545V765.554Z" fill="#276F61"/>
<path d="M107.176 575.698V765.554C104.732 765.536 98.3645 768.669 91.8687 768.614C84.9228 767.484 83.4619 765.306 90.3619 764.011L91.8687 578.757C89.1951 577.884 89.2318 576.865 91.8687 575.698C92.0984 566.547 105.531 567.254 107.176 575.698Z" fill="#9ABE75"/>
<path d="M58.1862 575.698L64.3145 578.518V761.888L58.1862 765.545C54.6306 765.848 48.4747 770.718 42.8886 768.614V578.748C43.0999 577.783 42.5762 576.589 42.8794 575.689C47.0966 572.344 56.3762 570.13 58.1862 575.689V575.698Z" fill="#9CBB75"/>
<path d="M202.104 575.698C198.052 633.379 207.497 698.217 202.232 755.043C201.746 760.326 199.136 766.5 199.044 768.614H195.985C189.958 765.674 190.27 764.295 189.645 758.186C183.673 699.053 185.915 634.794 189.857 575.688C189.857 566.721 200.092 567.107 202.104 575.688V575.698Z" fill="#9ABD75"/>
<path d="M91.8687 768.614C84.5828 768.55 59.932 770.92 58.1863 765.554C62.5321 759.573 70.7368 757.276 82.8096 758.673L85.6853 582.331L91.8687 578.757V768.614Z" fill="#225D2F"/>
<path d="M217.42 382.773C320.296 400.937 381.606 472.546 385.841 575.689C379.961 573.768 355.09 575.781 346.031 575.689C323.217 570.847 294.221 561.953 266.51 540.977C225.248 509.739 195.479 461.411 192.925 410.336C194.092 402.251 195.369 394 195.994 385.85C189.893 385.906 183.719 385.685 177.618 385.832C180.485 383.434 193.357 379.713 195.994 379.704C197.097 379.704 214.25 382.203 217.429 382.763L217.42 382.773Z" fill="#A0D4A1"/>
<path d="M192.916 410.336L214.719 469.68C238.414 518.89 291.326 561.218 345.874 569.781L346.021 575.689C342.153 581.633 337.633 581.652 333.774 575.689C321.554 575.606 309.243 575.762 297.032 575.689C293.164 581.642 288.644 581.652 284.785 575.689C274.605 575.643 264.351 575.716 254.162 575.689C253.592 578.417 252.554 578.307 251.102 575.689C246.178 581.661 240.711 581.67 235.795 575.689C224.596 575.661 213.313 575.689 202.113 575.689H153.114C153.114 584.656 142.879 584.27 140.867 575.689H91.8687C80.7515 581.697 69.3035 581.697 58.1863 575.689H42.8794C45.6082 567.475 54.4652 570.635 61.2182 567.998C134.574 539.323 181.367 490.15 192.925 410.336H192.916Z" fill="#F2ECD5"/>
<path d="M388.901 612.44C389.673 664.406 388.901 716.638 388.901 768.614C388.901 779.814 388.91 791.096 388.901 802.296C388.846 849.2 390.738 898.024 388.901 944.689C388.735 948.924 391.042 957.285 385.841 958.47C382.543 832.175 390.261 704.97 385.841 578.757C385.805 577.737 385.887 576.718 385.841 575.698C391.253 577.462 388.791 604.795 388.901 612.44Z" fill="#72B197"/>
<path d="M251.102 575.698L253.427 576.644C252.986 638.754 252.214 701.727 251.102 765.563C247.556 766.712 240.178 764.819 235.777 765.582L235.795 575.707C240.895 575.716 246.003 575.698 251.102 575.707V575.698Z" fill="#9ABE76"/>
<path d="M297.032 575.698L297.004 768.614L284.583 763.689L284.785 575.688C288.864 575.707 292.953 575.661 297.032 575.688V575.698Z" fill="#99BC75"/>
<path d="M346.031 575.698L346.012 765.573C342.548 765.251 338.699 766.05 335.327 765.573C325.928 764.24 339.333 592.034 333.783 575.698C337.863 575.725 341.951 575.652 346.031 575.698Z" fill="#9ABD75"/>
<path d="M254.162 575.698C267.512 583.415 254.529 578.794 253.895 586.199C249.2 640.839 257.938 702.664 254.29 758.066C254.07 761.484 255.485 764.13 251.093 765.554V575.698C252.113 575.698 253.133 575.698 254.153 575.698H254.162Z" fill="#296635"/>
<path d="M303.151 578.757H300.092V768.614H303.151V578.757Z" fill="#235E38"/>
<path d="M330.714 578.757H327.655V768.614H330.714V578.757Z" fill="#245D33"/>
<path d="M153.115 575.698L154.401 765.6L140.849 765.563L140.858 575.698H153.115Z" fill="#9EBB76"/>
<path d="M91.8687 575.698V578.757L88.8184 765.563C78.7578 766.161 68.1826 764.7 58.1771 765.545V575.689H91.8596L91.8687 575.698Z" fill="#296F5E"/>
</g>
</g>
<defs>
<clipPath id="clip0_108_223">
<rect width="1920" height="581" fill="white"/>
</clipPath>
</defs>
</svg>
