<svg width="66" height="66" viewBox="0 0 66 66" fill="none" xmlns="http://www.w3.org/2000/svg">
<rect width="66" height="66" fill="#F3F4F6"/>
<path d="M23.426 8.08876C30.6141 8.53647 39.0345 7.17293 46.0477 8.54522C60.2402 11.3248 58.0075 25.6442 57.9389 36.8252C57.9258 39.0725 58.0527 41.4263 57.8339 43.6969C56.0052 62.7398 37.2875 57.1456 23.8256 58.0571C13.6391 57.5715 8.43287 52.5125 7.94287 42.2823C8.18496 36.1602 7.63662 29.8121 7.94287 23.7163C8.44308 13.7602 13.4889 8.66626 23.426 8.08876ZM54.4491 33.6008C54.1341 26.5017 56.3027 15.8938 47.9289 12.6679C41.2687 10.1013 31.1727 11.3817 23.7162 11.5465C15.5802 11.9563 11.8454 15.6852 11.4356 23.8271C12.0131 30.5354 10.5256 38.7969 11.8002 45.304C11.8425 45.5198 12.016 46.4531 12.1531 46.4823L22.6093 39.5844C24.6539 38.6481 27.0864 38.7283 29.0493 39.844C30.1358 40.4623 30.8737 41.6042 32.1556 41.8681C33.3441 42.1131 34.2337 41.8302 35.1831 41.1302C38.4716 38.7036 41.5239 35.3465 44.795 32.8396C47.8793 30.4742 51.7366 30.9029 54.452 33.6008H54.4491ZM13.521 49.765C15.4591 53.4313 20.0193 54.28 23.8256 54.5644C30.8562 53.9256 39.876 55.6858 46.615 53.8731C54.0845 51.8636 54.6562 44.9248 54.4287 38.2617C52.177 36.4373 50.1441 33.3063 46.9766 35.5667C43.7493 37.8694 40.665 41.2688 37.4741 43.7494C35.5637 45.2354 33.5993 45.8013 31.1785 45.2471C28.17 44.5588 27.0777 41.0471 23.6331 43.0071L13.5225 49.765H13.521Z" fill="#C6CBD3"/>
<path d="M25.1702 17.3652C30.2933 16.7819 33.9931 22.0931 31.6554 26.6883C29.6108 30.706 23.935 31.3317 21.0489 27.8652C17.8202 23.986 20.1667 17.934 25.1702 17.3652ZM27.995 21.6308C25.2052 18.984 21.1758 23.1708 23.935 25.8542C26.6737 28.5171 30.7585 24.2544 27.995 21.6308Z" fill="#C6CBD3"/>
</svg>
