<svg width="41" height="37" viewBox="0 0 41 37" fill="none" xmlns="http://www.w3.org/2000/svg">
<path d="M15.206 26.2516C19.2294 25.8148 24.0225 26.6868 28.1351 26.338C29.9669 26.0419 32.0085 26.4145 33.8299 26.2467C35.1016 26.1299 35.2724 24.765 35.6131 23.819C37.4813 18.627 39.0279 13.3215 40.8726 8.12128C41.1683 7.26816 40.9801 6.38048 39.9806 6.12874C30.3293 5.94857 20.6043 5.93787 10.9521 6.11064C10.2335 6.1238 8.61407 6.23486 8.15114 5.64746C7.57724 4.53272 7.33971 2.45133 6.20232 1.72901C5.12372 1.04495 3.49973 0.558738 1.93834 0.0704737C1.37199 -0.106568 0.749288 0.0566526 0.359439 0.484861C-0.327154 1.23918 0.0137154 2.41184 1.00962 2.72857C2.54579 3.21708 4.04268 3.78137 4.73811 4.94818L11.8182 23.7696L11.8199 24.6894C11.1359 26.2788 11.0639 26.8755 10.3963 28.4394C9.77079 29.9039 10.21 29.2219 10.4167 30.3319C10.428 30.3923 10.5105 30.4159 10.4973 30.476C10.0502 32.5098 10.0068 34.4501 11.8199 35.8917C13.93 37.5684 16.8575 37.2541 18.6243 35.301C19.9536 33.8327 19.8278 32.2187 19.3429 30.471C19.3206 30.3905 19.3839 30.3114 19.4717 30.3114H26.6226C26.7177 30.3114 26.7826 30.4033 26.7457 30.4865C24.7391 35.0171 30.34 39.1855 34.4072 35.7132C36.0931 34.2741 36.1217 32.3018 35.4759 30.3856C35.4481 30.3034 35.5117 30.2192 35.6026 30.2192H36.9143C37.1458 30.2192 37.7492 29.7807 37.8714 29.5718C38.141 29.1135 38.0907 28.2316 37.6868 27.8392C37.5021 27.6607 36.7678 27.3826 36.5286 27.3826H13.1679C13.14 27.3826 13.1044 27.4843 13.0252 27.4403C12.9582 27.4031 12.9483 27.3164 12.9959 27.2584C13.8101 26.2666 13.6008 26.4264 15.206 26.2516ZM30.0129 8.94397H37.4449L35.5637 14.5275C35.5429 14.6723 35.1892 14.985 35.08 14.985H29.3367L30.0129 8.94397ZM29.1919 17.3642H34.5494L32.7904 22.7898C32.7878 22.9305 32.3319 23.4051 32.2807 23.4051H28.3718L29.1919 17.3642ZM30.7594 30.2414C33.7892 29.8062 34.4186 34.2265 31.5006 34.6041C28.3572 35.0114 27.8396 30.6618 30.7594 30.2414ZM25.9583 23.4051H21.759C21.4027 23.4051 21.2753 22.6927 21.2397 22.4327L20.7456 17.3642H26.6337L25.9583 23.4051ZM27.5994 8.94397L26.9241 14.8936L20.5107 14.8969L19.7807 8.94397H27.5994ZM11.6769 14.7513C10.7675 12.8493 10.1294 10.8139 9.35528 8.85265H16.8367C17.2745 8.92505 17.3716 9.29443 17.4392 9.65395C17.6967 11.013 17.838 12.8962 17.9455 14.2988C17.9628 14.5267 17.9385 14.7579 17.9464 14.985H12.1068C12.0626 14.985 11.774 14.7834 11.6769 14.7513ZM14.5429 30.2414C16.5272 29.956 18.0235 32.0768 16.8306 33.6918C15.4228 35.5963 12.2143 34.424 12.6608 31.9345C12.7978 31.1661 13.7418 30.3574 14.5429 30.2414ZM12.5412 17.2728H17.6083C17.8241 17.2728 18.2801 17.6488 18.3122 17.8866C18.5272 19.6924 18.6407 21.5261 18.9121 23.3138H15.0023C14.6608 23.3138 12.8931 17.908 12.5412 17.2728Z" fill="#25353D"/>
</svg>
