<?xml version="1.0" encoding="UTF-8"?>
<svg id="Layer_1" data-name="Layer 1" xmlns="http://www.w3.org/2000/svg" viewBox="0 0 1286.81 1309.28">
  <defs>
    <style>
      .cls-1 {
        fill: #f3f4f6;
      }

      .cls-2 {
        fill: #c6cbd3;
      }
    </style>
  </defs>
  <rect class="cls-1" width="1286.81" height="1309.28"/>
  <path class="cls-2" d="M1042.81,615.4v51.94c-19.4,256.34-295.11,412.34-525.01,287.46-41.54-22.57-94.34-66.44-119.38-106.72-25.55-41.1,21.85-70.62,47.89-44.84,16.28,16.12,27.92,37.75,47.26,55.09,217.59,195.01,553.57-17.67,472.08-297.93-75.23-258.75-437.22-280.77-544.86-33.11-6.16,14.18-12.31,29.93-14.25,45.32,19.08-9.42,45.95-38.69,67.25-38.29,32.13.61,43.09,38.91,18.05,59.42-32.66,26.76-76.76,48.06-110.59,74.26-14.56,8.26-32.66,4.02-42.64-9.1-21.33-36.82-52.03-72.55-72.47-109.32-21.97-39.5,24.46-70.82,51.83-39.61,10.04,11.44,15.95,27.16,26.7,38.2,55.59-214.49,292.73-328.5,495.51-231.98,114.19,54.36,194.82,172.59,202.63,299.2h0Z"/>
  <path class="cls-2" d="M677.3,443.14c23.14-4,38.44,11.85,40.18,33.95,3.81,48.58-3.61,101.48.74,150.5,21.54,22.7,45.01,43.68,66.47,66.44,5.99,6.36,24.51,24.84,27.14,30.91,13.93,32.17-22.48,59.61-50.86,38.63-19.24-14.22-51.6-50.72-69.55-69.47-7.68-8.02-34.55-34.49-37.35-42.09-1.34-3.65-2.05-7.48-2.39-11.36-4.65-54,3.44-114.74.22-169.45,1.13-12.51,12.97-25.91,25.4-28.06h0Z"/>
</svg>