<svg width="24" height="24" viewBox="0 0 24 24" fill="none" xmlns="http://www.w3.org/2000/svg">
<path d="M10.0717 0.0240515C4.35896 -0.379908 -0.379816 4.36001 0.0240457 10.0741C0.355545 14.7632 4.16729 18.5113 8.85913 18.7754C11.0457 18.8986 13.0757 18.2599 14.7273 17.1126C14.9562 16.9532 15.2652 16.9767 15.4617 17.1742L21.9137 23.6278C22.3841 24.0983 23.1556 24.1335 23.6338 23.6718C24.112 23.2102 24.1267 22.4247 23.6495 21.9474L17.1691 15.4655C16.9716 15.2679 16.9491 14.9598 17.1075 14.7309C18.2545 13.0789 18.8931 11.0483 18.7699 8.86128C18.5068 4.16733 14.7596 0.354653 10.0717 0.0240515ZM9.04982 2.09569C13.3476 1.89811 16.8884 5.43887 16.6909 9.73864C16.5188 13.4868 13.4835 16.5228 9.73628 16.695C5.43853 16.8925 1.89765 13.3518 2.09518 9.05201C2.26729 5.30389 5.30261 2.26784 9.04982 2.09569Z" fill="#FF7A1A"/>
</svg>
