<svg width="37" height="34" viewBox="0 0 37 34" fill="none" xmlns="http://www.w3.org/2000/svg">
<path d="M31.5594 18.5155C29.3944 20.7247 27.0597 22.8375 24.8256 24.9803C22.7364 26.9844 20.676 29.0192 18.5649 31.0006L18.3171 30.8231C14.1972 26.7561 9.8833 22.879 5.74766 18.8298C2.86577 16.008 1.19903 12.7912 2.39309 8.67384C4.43599 1.629 13.7106 -0.35413 18.4751 5.23056C18.6542 5.20247 18.7229 5.01165 18.8329 4.89484C23.794 -0.371964 32.8441 1.91479 34.6765 8.86734C35.7 12.7498 34.2213 15.7989 31.5594 18.5155Z" stroke="#FF4A4A" stroke-width="4" stroke-miterlimit="10"/>
<rect x="3.00281" y="5.00056" width="30" height="11" fill="#FF4A4A"/>
<rect x="5.00281" y="3.00056" width="25" height="11" fill="#FF4A4A"/>
<rect x="6.00281" y="12.0006" width="25" height="8" fill="#FF4A4A"/>
<rect x="10.0028" y="17.0006" width="17" height="8" fill="#FF4A4A"/>
<rect x="15.0028" y="21.0006" width="7" height="8" fill="#FF4A4A"/>
</svg>
