<svg width="32" height="32" viewBox="0 0 32 32" fill="none" xmlns="http://www.w3.org/2000/svg">
<path d="M20.1927 1H23.784C27.2767 1 30.1129 3.71797 30.1129 7.06523V10.5069C30.1129 11.3183 29.4255 11.977 28.5789 11.977H20.1927C19.346 11.977 18.6586 11.3183 18.6586 10.5069V2.47012C18.6586 1.65874 19.346 1 20.1927 1Z" stroke="#207FC6" stroke-width="2" stroke-miterlimit="10"/>
<path d="M7.32893 1H10.9202C11.7669 1 12.4543 1.65874 12.4543 2.47012V10.5069C12.4543 11.3183 11.7669 11.977 10.9202 11.977H2.53403C1.68738 11.977 1 11.3183 1 10.5069V7.06523C1 3.71797 3.83615 1 7.32893 1Z" stroke="#207FC6" stroke-width="2" stroke-miterlimit="10"/>
<path d="M20.1927 19.1359H28.5789C29.4255 19.1359 30.1129 19.8232 30.1129 20.6699V24.2612C30.1129 27.754 27.2767 30.5901 23.784 30.5901H20.1927C19.346 30.5901 18.6586 29.9027 18.6586 29.0561V20.6699C18.6586 19.8232 19.346 19.1359 20.1927 19.1359Z" stroke="#207FC6" stroke-width="2" stroke-miterlimit="10"/>
<path d="M2.53403 19.1359H10.9202C11.7669 19.1359 12.4543 19.8232 12.4543 20.6699V29.0561C12.4543 29.9027 11.7669 30.5901 10.9202 30.5901H7.32893C3.83615 30.5901 1 27.754 1 24.2612V20.6699C1 19.8232 1.68738 19.1359 2.53403 19.1359Z" stroke="#207FC6" stroke-width="2" stroke-miterlimit="10"/>
</svg>
