<svg width="24" height="30" viewBox="0 0 24 30" fill="none" xmlns="http://www.w3.org/2000/svg">
<g clip-path="url(#clip0_136_11)">
<path d="M2.01038 10.9178C1.62719 10.8825 0.294292 10.554 0.0771258 10.2562C-0.00470494 10.1446 1.60621e-05 10.07 0.000802896 9.94031C0.00709757 9.29046 0.457166 7.81238 0.639712 7.11224C1.25816 4.74386 1.44543 3.00961 3.90979 1.97001C4.94291 1.53468 5.8517 1.53468 6.9273 1.32959C7.25148 2.72359 8.00133 4.16159 9.1383 5.05582C9.38301 5.24834 10.3146 5.89505 10.5884 5.57366C10.8387 5.28056 10.7316 3.78598 11.6491 3.84413V9.77686C11.6491 10.1753 13.5375 10.1753 13.5375 9.77686V4.00286C14.0725 4.1498 14.1064 5.50529 14.3243 5.6153C14.8491 5.87933 16.1694 4.64249 16.4818 4.23231C16.8587 3.73647 17.2002 2.90746 17.2946 2.29376C17.3355 2.03052 17.2639 1.66434 17.3269 1.4616C17.3945 1.24551 18.2105 1.47103 18.4568 1.48832C19.8668 1.58733 21.8512 1.5394 22.4083 3.19978C23.118 5.31827 23.3257 7.8721 23.9835 10.0346C24.0527 10.6012 23.9261 10.7049 23.476 10.9807C22.6073 11.5135 21.1218 11.7704 20.1485 11.4679C20.1603 12.1476 19.9958 12.843 19.7558 13.4732C19.3538 14.5301 18.7794 14.7014 18.8895 15.9846C18.9997 17.2678 19.8636 18.5094 20.3058 19.7564C21.1674 22.1837 21.5183 25.7795 21.0872 28.3184C21.0659 28.4426 21.0006 28.6052 20.8983 28.6799C20.7229 28.8088 19.3073 29.1286 18.9832 29.2032C14.6273 30.202 9.35704 30.3568 5.03969 29.1082C4.50149 28.9526 3.62496 28.8064 3.48569 28.2241C2.87196 25.6538 3.36137 22.3071 4.27252 19.8554C4.91301 18.1338 5.89261 17.1539 5.2781 15.1965C5.04205 14.4445 4.50779 13.9078 4.27488 13.1338C4.07031 12.4533 3.95622 11.6109 4.09549 10.9163C3.42117 10.8715 2.67525 10.9776 2.01038 10.9163V10.9178Z" fill="#AA05AD"/>
<path d="M11.4917 3.06068C11.3556 3.26734 11.0755 3.27206 10.8678 3.419C10.4138 3.73882 10.2186 4.37374 10.0369 4.86643C8.78817 4.10343 7.72437 2.38018 7.51271 0.941397C7.45291 0.535928 7.84082 -0.162642 8.26414 0.033806C8.47737 0.132816 9.17529 1.60303 9.42786 1.93857C9.92593 2.60256 10.6829 2.9326 11.4917 3.06068Z" fill="#AA05AD"/>
<path d="M14.7185 4.78938C14.6131 4.00516 14.0387 3.27516 13.2235 3.1785C14.0237 2.8579 15.0466 2.6198 15.3692 1.70671C15.4849 1.37982 15.5163 0.398368 15.7965 0.320575C16.0034 0.263212 16.6124 0.724472 16.6683 0.91542C16.8941 1.68943 16.4456 3.15572 15.9766 3.80635C15.8366 4.00044 14.9065 4.95047 14.7185 4.78859V4.78938Z" fill="#AA05AD"/>
<path d="M12.8293 3.84564H12.3572V9.34619H12.8293V3.84564Z" fill="#AA05AD"/>
</g>
<defs>
<clipPath id="clip0_136_11">
<rect width="24" height="30" fill="white"/>
</clipPath>
</defs>
</svg>
