<svg width="28" height="30" viewBox="0 0 28 30" fill="none" xmlns="http://www.w3.org/2000/svg">
<path d="M9.60018 0.0582744C9.67655 0.109337 9.76382 0.653262 9.94491 0.875272C11.3915 2.65357 17.9458 2.84672 18.7531 0.0116523C20.3611 0.233662 23.3699 0.797568 24.3212 2.22509C25.2725 3.65262 27.0136 7.79089 27.6638 9.47595C27.8209 9.88666 28.218 10.4617 27.8449 10.7902L23.4441 12.8172L22.1873 10.2596C22.1241 14.6221 21.8208 18.9913 21.967 23.376C22.0171 24.8901 22.4622 26.6662 22.2942 28.167C18.4978 30.1429 14.1864 30.376 10.0387 29.5545C9.36454 29.4213 5.84738 28.5155 5.67938 28.0271C6.29903 22.1838 6.0372 16.3205 5.86047 10.4728C5.37174 10.364 5.52447 10.5372 5.39137 10.7458C5.17537 11.0877 4.57099 12.7728 4.29608 12.7928C3.63934 12.2156 0.0130912 11.1432 0 10.3751L3.86625 2.15405C4.38335 1.20607 9.03071 -0.316923 9.60018 0.0582744Z" fill="#008E9E"/>
</svg>
