<svg width="23" height="30" viewBox="0 0 23 30" fill="none" xmlns="http://www.w3.org/2000/svg">
<path d="M8.45545 9.14498C1.77912 11.1877 -0.655567 19.4091 3.79552 24.8183C8.15399 30.1149 16.6088 29.4464 20.0659 23.5445C23.2694 18.0764 20.5684 10.9855 14.5083 9.14498C14.4907 9.05713 14.5422 9.01201 14.5797 8.94582C14.6445 8.8321 15.32 7.92416 15.383 7.87663C15.5234 7.77073 15.6342 7.86459 15.7783 7.91333C19.1325 9.05473 21.9631 12.6203 22.7113 16.0036C24.9432 26.0944 13.7691 33.7533 5.08127 28.0517C-2.3929 23.1468 -1.45522 11.577 6.79923 8.07097C6.95601 8.00418 7.41728 7.77976 7.54683 7.84835C7.61705 7.88565 8.50872 9.08541 8.45545 9.14498Z" fill="#F7A14B"/>
<path d="M13.4186 5.00842L11.9682 10.6366C11.7449 10.6552 11.0578 10.7509 10.9464 10.5644L9.54443 5.00842H13.4186Z" fill="#F7A14B"/>
<path d="M8.69697 5.00842L10.1516 10.6895C10.1462 10.7515 9.36588 10.9254 9.27265 10.7834L4.94385 5.00842H8.69697Z" fill="#F7A14B"/>
<path d="M18.0192 5.00842L13.6904 10.7834C13.5972 10.9254 12.8169 10.7521 12.8115 10.6895L14.2661 5.00842H18.0192Z" fill="#F7A14B"/>
<path d="M5.00439 4.22621L6.60795 2.24005L8.15218 4.22621H5.00439Z" fill="#F7A14B"/>
<path d="M9.90765 4.22621L11.4519 2.24005L13.0554 4.22621H9.90765Z" fill="#F7A14B"/>
<path d="M14.8109 4.22621L16.3551 2.24005L17.9587 4.22621H14.8109Z" fill="#F7A14B"/>
<path d="M10.5735 2C10.384 2.26233 9.14914 3.92659 8.96996 3.92599L7.48627 2H10.5735Z" fill="#F7A14B"/>
<path d="M15.4768 2L13.9931 3.92599C13.8139 3.92599 12.579 2.26233 12.3895 2H15.4768Z" fill="#F7A14B"/>
</svg>
