<svg width="25" height="29" viewBox="0 0 25 29" fill="none" xmlns="http://www.w3.org/2000/svg">
<g clip-path="url(#clip0_81_46)">
<path d="M6.4256 29C6.02098 28.8352 5.74748 28.6165 5.65125 28.1657L7.10091 10.6042H23.5335L24.9995 27.8377C25.0169 28.4381 24.7535 28.791 24.2088 29H6.4256ZM10.4611 11.975C10.2591 12.0203 10.1606 12.1913 10.1381 12.3862C10.038 13.2545 10.0768 15.0528 10.137 15.9557C10.5433 22.0655 19.4512 22.4427 20.422 16.5034C20.5649 15.6271 20.6004 13.3275 20.4951 12.4428C20.418 11.7926 19.6499 11.8328 19.5491 12.2865C19.4039 14.3142 19.9875 16.4127 18.6836 18.151C16.8366 20.6138 13.0397 20.3294 11.5929 17.6045C10.7414 16.0004 11.2316 14.0361 11.0836 12.2865C10.9991 12.005 10.7391 11.9121 10.4606 11.975H10.4611Z" fill="#C1272D"/>
<path d="M10.2523 0.0204021C13.2445 0.325129 14.8011 2.80429 14.867 5.62386C14.549 5.62329 14.2282 5.62386 13.9103 5.62386C13.7431 -0.653621 5.87802 -0.195399 5.46946 4.91698C5.45145 5.14525 5.47509 5.39163 5.4689 5.62386C5.15094 5.62386 4.83017 5.62329 4.51221 5.62386C4.58255 2.78277 6.17235 0.29964 9.18311 0.0204021C9.46055 -0.00508618 9.9766 -0.00735181 10.2523 0.0204021Z" fill="#C1272D"/>
<path d="M4.51224 5.62382C4.49986 6.12792 4.44415 7.04663 4.52575 7.50655C4.62085 8.04294 5.36088 7.9982 5.45711 7.56433C5.55335 7.13046 5.45543 6.14775 5.46893 5.62382C8.2816 5.61986 11.0976 5.62042 13.9103 5.62382C13.9244 6.14775 13.8225 7.11404 13.9221 7.56433C14.0217 8.01462 14.7567 8.00499 14.8546 7.56433C14.9419 7.17011 14.8777 6.08827 14.8664 5.62382C15.8783 5.62552 16.8935 5.62212 17.9053 5.62382V9.64247H6.56631C6.38679 9.64247 6.1403 9.93474 6.14931 10.1284L4.99453 23.9663C4.95513 24.0241 4.88479 24.0145 4.82457 24.0218C4.00688 24.1215 1.95 24.0972 1.10868 24.0179C0.396786 23.951 -0.078183 23.4894 0.0112957 22.7457L1.47053 5.66007L1.50767 5.62042C2.50882 5.62495 3.51166 5.62609 4.51224 5.62382Z" fill="#C1272D"/>
</g>
<defs>
<clipPath id="clip0_81_46">
<rect width="25" height="29" fill="white"/>
</clipPath>
</defs>
</svg>
