<svg width="41" height="30" viewBox="0 0 41 30" fill="none" xmlns="http://www.w3.org/2000/svg">
<path d="M36.3744 7.81604H38.0336C39.0482 7.81604 40.2694 9.1932 40.2582 10.2165L40.2628 27.4599C40.1553 28.8351 39.1636 29.8321 37.7936 29.9408L14.8867 29.9329C14.608 29.8894 14.4047 29.6865 14.3607 29.4044C14.3109 29.0822 14.3168 27.2662 14.4171 27.0303C14.6906 26.3872 16.4889 26.8096 17.1008 26.6765L17.4327 25.383H11.7663V27.7011C11.7663 28.7205 10.3956 29.9474 9.37708 29.9362C7.15774 29.7919 4.68853 30.1352 2.49937 29.9362C1.2323 29.8209 0.29446 28.8661 0.110827 27.6187C0.367913 24.1093 -0.236764 20.0905 0.110827 16.641C0.206578 15.6922 1.26312 14.3223 2.25474 14.3223H3.99532V2.16311C3.99466 1.26104 5.37519 -0.000140559 6.30254 0.00908441L33.8278 0.00447192C34.9001 -0.0844831 36.3737 1.17077 36.3737 2.24482V7.81604H36.3744ZM35.0791 7.81604V2.32587C35.0791 2.05044 34.4522 1.34209 34.1124 1.34539L6.19563 1.36515C5.86313 1.40469 5.29059 2.02672 5.29059 2.32587V14.3223H9.54038C10.4454 14.3223 11.7663 15.6494 11.7663 16.5587V20.8285H23.423V9.97073C23.423 9.12071 24.8029 7.81538 25.6489 7.81538H35.0791V7.81604ZM25.7486 9.13653C25.1951 9.25645 24.7708 9.71902 24.717 10.2962L24.7137 27.3796C24.7235 28.0668 25.3026 28.6019 25.9683 28.6401C29.757 28.3824 33.974 28.9715 37.7123 28.6401C38.4271 28.5768 38.9236 28.1096 38.9669 27.3796V10.3746C38.9348 9.73549 38.4311 9.16486 37.7903 9.11676L25.7479 9.13653H25.7486ZM2.43575 15.6428C1.89797 15.7337 1.44676 16.2516 1.40413 16.8025C1.62908 20.2144 1.10572 24.0131 1.40085 27.3789C1.4625 28.082 1.89075 28.5215 2.57807 28.6361C4.72132 28.4925 7.10527 28.8266 9.21902 28.6394C9.90699 28.5781 10.3844 28.1512 10.471 27.4573C10.2336 24.0599 10.7865 20.2269 10.4736 16.8809C10.3667 15.737 9.41249 15.4965 8.41759 15.6342C7.92375 16.2226 8.16969 17.4897 7.19643 17.5787C6.62258 17.6314 5.06367 17.6545 4.52589 17.5701C3.83923 17.4621 3.83661 16.1692 3.51263 15.6606C3.39392 15.5808 2.62332 15.6111 2.43575 15.6428ZM6.98985 15.6237H4.88528L5.17975 16.2635L6.78916 16.1949L6.98985 15.6243V15.6237ZM23.4224 22.1299H11.7656V24.0816H23.4224V22.1299ZM18.4033 26.6844H21.9651L21.6333 25.3909L18.7765 25.3777L18.4033 26.6837V26.6844ZM23.4224 25.383H22.9364C23.0879 25.7395 23.1115 26.1441 23.2394 26.5058C23.286 26.6376 23.1961 26.7226 23.4224 26.6844V25.383ZM23.503 27.9858H15.6508V28.6361H23.7457L23.503 27.9858Z" fill="#AA05AD"/>
<path d="M2.51434 26.7022C2.8016 26.6376 4.54086 26.6376 4.82746 26.7022C5.46362 26.8452 5.45903 27.8718 4.75925 27.9812C4.41691 28.0352 2.83045 28.0391 2.515 27.9686C1.89458 27.8296 1.89392 26.8412 2.515 26.7022H2.51434Z" fill="#AA05AD"/>
<path d="M6.40014 26.7021C6.86841 26.5974 7.79838 26.5888 7.87839 27.2207C7.98332 28.0457 7.07368 28.076 6.46835 27.9811C5.76858 27.8717 5.76333 26.8445 6.40014 26.7021Z" fill="#AA05AD"/>
<path d="M25.8278 9.78491L37.9732 9.82906C38.2113 9.9536 38.3339 10.1822 38.3214 10.455L38.2565 25.6881C38.1326 25.9273 37.905 26.0505 37.6335 26.038L25.7098 25.9727C25.4717 25.8482 25.3491 25.6196 25.3616 25.3468V10.4557C25.3471 10.1361 25.5222 9.87321 25.8278 9.78557V9.78491ZM37.0216 11.0692H26.6601V24.7326H37.0216V11.0692Z" fill="#AA05AD"/>
<path d="M31.0096 26.7008C31.9586 26.4926 32.1225 27.8065 31.3775 27.9699C30.4285 28.1781 30.2646 26.8642 31.0096 26.7008Z" fill="#AA05AD"/>
</svg>
